<svg id="Layer_1" xmlns="http://www.w3.org/2000/svg" viewBox="0 0 217.1 48.1"><style>.st0{fill:#26af85}.st0,.st1{fill-rule:evenodd;clip-rule:evenodd}.st1,.st2{fill:#314977}</style><path class="st0" d="M34.4 48.1L55 15.7 34.4 24z"/><path class="st1" d="M0 0l33.9 24v24.1zM213.4 31.1c-1.9 0-3.7-1.5-3.7-3.7 0-2.1 1.7-3.7 3.7-3.7 2.1 0 3.7 1.7 3.7 3.7 0 2.1-1.6 3.7-3.7 3.7m0-7.1c-1.9 0-3.4 1.5-3.4 3.4s1.5 3.4 3.4 3.4 3.4-1.5 3.4-3.4c0-1.8-1.5-3.4-3.4-3.4m-.1 1.1c.6 0 .8 0 1.1.1.5.2.7.6.7 1 0 .6-.5 1-1 1.1.5.2.6.4.7 1 .1.7.1.9.3 1.3h-.8c-.1-.2-.2-.4-.2-1-.1-1.1-.3-1.1-1.6-1.1v2.2h-.7v-4.6h1.5zm-.7 1.9h.8c.3 0 1.1 0 1.1-.7 0-.2-.1-.4-.2-.5-.2-.2-.4-.2-1-.2h-.6V27z"/><g><path class="st2" d="M62.8 44.2l-6.6-20.1H59l3.1 9.9c.9 2.7 1.6 5.2 2.1 7.5h.1c.6-2.3 1.4-4.9 2.3-7.5l3.4-9.9h2.8l-7.2 20.1h-2.8zM77.9 25.8c0 .9-.6 1.6-1.7 1.6-.9 0-1.6-.7-1.6-1.6 0-.9.7-1.6 1.6-1.6 1.1-.1 1.7.6 1.7 1.6zM75 44.2V29.8h2.6v14.4H75zM81.9 34.3c0-1.7 0-3.2-.1-4.5h2.3l.1 2.8h.1c.7-1.9 2.2-3.2 4-3.2.3 0 .5 0 .7.1V32h-.8c-1.8 0-3.2 1.4-3.5 3.4-.1.4-.1.8-.1 1.2v7.7H82v-10zM95.7 25.7v4.1h3.8v2h-3.8v7.8c0 1.8.5 2.8 2 2.8.7 0 1.2-.1 1.5-.2l.1 2c-.5.2-1.3.4-2.3.4-1.2 0-2.2-.4-2.8-1.1-.7-.8-1-2.1-1-3.8v-7.9H91v-2h2.2v-3.5l2.5-.6zM114.5 40.3c0 1.5 0 2.8.1 3.9h-2.3l-.1-2.4h-.2c-.7 1.2-2.2 2.7-4.8 2.7-2.3 0-5-1.3-5-6.3v-8.4h2.6v8c0 2.7.8 4.6 3.2 4.6 1.8 0 3-1.2 3.5-2.4.1-.4.2-.9.2-1.3v-8.9h2.6v10.5zM126.8 44.2l-.2-1.8h-.1c-.8 1.1-2.4 2.1-4.4 2.1-2.9 0-4.4-2.1-4.4-4.1 0-3.5 3.1-5.4 8.7-5.4v-.3c0-1.2-.3-3.3-3.3-3.3-1.3 0-2.7.4-3.8 1.1l-.6-1.7c1.2-.8 2.9-1.3 4.7-1.3 4.4 0 5.5 3 5.5 5.9v5.4c0 1.3.1 2.5.2 3.5h-2.3zm-.4-7.3c-2.9-.1-6.1.4-6.1 3.2 0 1.7 1.1 2.5 2.5 2.5 1.9 0 3.1-1.2 3.5-2.4.1-.3.1-.6.1-.8v-2.5zM133.2 23.1h2.6v21.2h-2.6V23.1zM140.3 24.4c1.1-.2 2.9-.4 4.7-.4 2.6 0 4.3.4 5.5 1.5 1 .8 1.7 2 1.7 3.5 0 1.9-1.3 3.6-3.4 4.4v.1c1.9.5 4.1 2.1 4.1 5 0 1.7-.7 3-1.7 4-1.4 1.3-3.7 1.9-6.9 1.9-1.8 0-3.2-.1-4-.2V24.4zm2.6 8.2h2.4c2.7 0 4.4-1.4 4.4-3.4 0-2.4-1.8-3.3-4.4-3.3-1.2 0-1.9.1-2.3.2v6.5zm0 9.7c.5.1 1.3.1 2.2.1 2.7 0 5.2-1 5.2-3.9 0-2.7-2.4-3.9-5.2-3.9H143v7.7zM164.3 44.2l-.2-1.8h-.1c-.8 1.1-2.4 2.1-4.4 2.1-2.9 0-4.4-2.1-4.4-4.1 0-3.5 3.1-5.4 8.7-5.4v-.3c0-1.2-.3-3.3-3.3-3.3-1.3 0-2.7.4-3.8 1.1l-.6-1.7c1.2-.8 2.9-1.3 4.7-1.3 4.4 0 5.5 3 5.5 5.9v5.4c0 1.3.1 2.5.2 3.5h-2.3zm-.3-7.3c-2.9-.1-6.1.4-6.1 3.2 0 1.7 1.1 2.5 2.5 2.5 1.9 0 3.1-1.2 3.5-2.4.1-.3.1-.6.1-.8v-2.5zM170.7 33.7c0-1.5 0-2.7-.1-3.9h2.3l.1 2.4h.1c.7-1.4 2.4-2.7 4.8-2.7 2 0 5.1 1.2 5.1 6.1v8.6h-2.6v-8.3c0-2.3-.9-4.3-3.3-4.3-1.7 0-3.1 1.2-3.5 2.7-.1.3-.2.8-.2 1.2v8.7h-2.6V33.7zM189.8 36.4c.4-.5.9-1.1 1.3-1.6l4.2-5h3.2l-5.6 5.9 6.3 8.5H196l-5-6.9-1.3 1.5v5.4h-2.6V23.1h2.6v13.3z"/></g></svg>